<?xml version="1.0" standalone="no"?>
<!DOCTYPE svg PUBLIC "-//W3C//DTD SVG 20010904//EN"
 "http://www.w3.org/TR/2001/REC-SVG-20010904/DTD/svg10.dtd">
<svg version="1.0" xmlns="http://www.w3.org/2000/svg"
 width="736.000000pt" height="1308.000000pt" viewBox="0 0 736.000000 1308.000000"
 preserveAspectRatio="xMidYMid meet">

<g transform="translate(0.000000,1308.000000) scale(0.100000,-0.100000)"
fill="#000000" stroke="none">
<path d="M0 6540 l0 -6540 3680 0 3680 0 0 6540 0 6540 -3680 0 -3680 0 0
-6540z m4191 2718 c96 -32 136 -102 146 -252 l6 -96 32 0 c43 0 300 47 354 65
67 23 139 19 188 -9 l41 -24 38 25 c224 153 504 232 717 204 155 -21 269 -70
367 -158 115 -103 171 -232 171 -393 1 -114 -11 -169 -61 -276 -70 -151 -182
-295 -331 -421 -49 -42 -89 -79 -89 -84 0 -17 64 -80 143 -141 45 -35 99 -81
121 -102 89 -91 130 -260 87 -360 l-22 -49 24 -36 c49 -73 66 -108 92 -184 70
-208 48 -436 -64 -673 -140 -294 -405 -559 -697 -696 -94 -43 -160 -56 -219
-39 -21 6 -40 9 -42 7 -5 -5 -53 -335 -53 -363 0 -17 8 -23 43 -28 43 -8 102
-34 148 -66 l27 -19 61 41 c145 97 285 143 367 120 97 -26 165 -109 172 -212
l4 -59 41 0 c47 0 121 -33 143 -64 8 -11 36 -56 61 -99 38 -65 46 -87 46 -130
1 -103 -70 -181 -189 -208 l-53 -12 -11 -51 c-5 -28 -24 -123 -40 -211 -17
-88 -38 -175 -48 -195 -21 -43 -103 -106 -157 -121 -52 -15 -166 -4 -220 20
-46 20 -89 70 -100 114 -8 30 -13 31 -84 16 -40 -8 -62 -7 -115 6 -63 16 -66
16 -93 -4 -35 -26 -101 -40 -180 -41 -69 0 -107 11 -140 42 -21 20 -23 20 -68
3 -40 -16 -66 -17 -198 -11 l-153 7 -24 -50 c-35 -75 -127 -150 -211 -172
-112 -29 -232 70 -264 218 -6 32 -18 42 -29 24 -3 -5 -26 -14 -51 -20 -40 -10
-47 -16 -61 -51 -30 -75 -152 -160 -230 -160 -86 0 -209 50 -239 97 -15 22
-20 23 -86 17 -46 -5 -83 -3 -109 6 -38 12 -39 12 -70 -23 -72 -83 -191 -88
-395 -17 -83 29 -137 55 -175 84 -80 61 -77 60 -126 36 -25 -11 -64 -24 -87
-29 -49 -9 -169 9 -214 32 -37 20 -81 70 -89 103 -3 13 -8 24 -10 24 -2 0 -38
-23 -81 -51 -231 -151 -433 -204 -558 -145 -92 42 -145 125 -180 280 -10 43
-11 75 -5 106 5 25 9 63 10 86 0 27 9 54 26 80 30 44 51 60 112 89 43 20 44
20 86 145 l42 125 -15 62 c-15 59 -19 63 -78 103 -108 71 -153 138 -153 227 0
26 -8 68 -16 93 -21 59 -22 146 -1 186 18 35 81 94 101 94 7 0 30 13 52 30 44
34 148 70 201 70 63 0 136 -52 179 -126 11 -18 15 -17 92 20 45 22 83 45 86
52 3 7 45 40 95 73 49 33 116 85 148 114 l57 54 -52 12 c-29 6 -72 11 -95 11
-23 0 -60 5 -82 11 -22 6 -83 14 -135 18 -169 14 -266 84 -329 236 l-33 80 7
155 c6 147 9 159 40 227 46 100 145 241 236 337 l77 81 -17 67 c-10 37 -20 70
-23 74 -4 3 -11 -12 -17 -34 -19 -70 -91 -144 -178 -183 -53 -24 -243 -37
-295 -20 -45 15 -104 74 -119 118 -12 38 -13 55 -6 343 5 213 9 249 57 465
112 502 256 820 404 897 57 29 139 27 204 -6 28 -14 53 -30 56 -35 3 -5 28
-14 55 -21 29 -7 66 -26 89 -45 l39 -34 50 102 c92 190 225 367 305 408 59 30
143 29 210 -4 56 -27 181 -144 206 -193 8 -15 17 -56 20 -91 4 -52 8 -63 21
-58 9 2 104 22 213 44 203 41 229 42 293 9 17 -8 54 -18 83 -21 76 -9 143 -50
228 -140 41 -44 77 -78 79 -75 2 2 8 76 13 165 9 157 10 162 40 210 18 28 32
56 32 64 0 29 49 86 92 106 111 54 223 74 289 51z"/>
<path d="M4080 9190 c-19 -4 -48 -13 -65 -19 -16 -6 -43 -13 -58 -16 -36 -7
-73 -46 -81 -86 -3 -16 -17 -45 -31 -63 -22 -29 -27 -50 -35 -147 -18 -202
-49 -340 -87 -381 -16 -18 -17 -17 -30 13 -7 17 -13 42 -13 56 0 38 -28 82
-94 151 -79 82 -122 105 -192 100 -30 -1 -54 0 -54 5 0 16 -67 47 -102 47 -36
0 -285 -49 -450 -89 -43 -10 -78 -15 -78 -11 0 4 7 29 15 56 18 61 19 105 1
147 -17 41 -134 153 -180 172 -78 33 -156 12 -207 -54 -13 -18 -38 -49 -54
-69 -73 -89 -153 -235 -231 -421 l-39 -93 -5 43 c-3 24 -11 53 -17 64 -24 43
-79 84 -128 96 -27 7 -59 21 -70 30 -55 46 -139 63 -188 38 -31 -16 -87 -71
-87 -85 0 -6 -7 -17 -16 -25 -28 -23 -104 -188 -149 -322 -55 -169 -96 -324
-135 -511 -29 -143 -31 -162 -33 -419 l-2 -268 39 -36 39 -36 111 7 c83 6 122
13 154 29 64 31 117 94 136 160 37 128 136 103 136 -34 0 -15 13 -52 29 -82
l29 -55 -60 -58 c-117 -115 -226 -263 -279 -379 -24 -53 -28 -77 -34 -197 -6
-137 -6 -137 25 -211 53 -127 128 -178 275 -187 49 -3 96 -9 103 -13 7 -5 56
-12 110 -17 111 -10 255 -29 260 -35 2 -2 -10 -23 -26 -47 -44 -63 -163 -173
-251 -229 -42 -27 -85 -60 -96 -74 -29 -35 -170 -105 -212 -105 -36 0 -51 12
-116 94 -19 23 -40 38 -62 42 -46 8 -161 -30 -181 -61 -8 -13 -30 -26 -49 -29
-20 -4 -44 -19 -59 -37 -33 -38 -35 -113 -6 -177 14 -31 18 -55 14 -86 -4 -29
-1 -52 10 -73 21 -42 89 -99 158 -131 l57 -27 -1 -46 c0 -25 5 -63 12 -83 11
-35 8 -49 -41 -197 -33 -102 -57 -159 -66 -159 -25 0 -111 -49 -131 -74 -15
-19 -21 -49 -27 -119 -15 -210 77 -356 225 -357 133 0 337 96 523 248 43 35
81 62 83 59 3 -3 1 -22 -5 -44 -24 -84 0 -152 62 -178 52 -21 149 -29 193 -15
44 14 94 56 94 79 0 10 13 3 38 -20 106 -101 155 -128 322 -181 161 -50 248
-30 280 63 l15 45 65 -28 c36 -15 79 -27 95 -28 50 0 106 20 131 47 l24 26 0
-37 c0 -21 8 -51 17 -67 20 -33 93 -68 163 -76 44 -5 54 -2 105 31 62 41 78
62 95 121 12 40 13 41 73 52 51 10 68 18 92 46 25 29 35 34 63 30 32 -5 32 -6
32 -59 0 -64 30 -157 62 -192 31 -34 82 -54 116 -46 55 14 141 82 167 134 14
27 25 58 25 70 0 18 7 20 73 22 39 1 81 0 92 -1 11 -2 63 -5 115 -7 114 -5
150 11 179 78 l18 43 6 -42 c9 -51 48 -99 88 -108 17 -4 62 -4 101 0 63 7 76
11 106 41 19 19 38 34 42 34 4 0 29 -9 55 -21 57 -25 116 -26 211 -2 l71 19
-1 -51 c-1 -96 50 -134 181 -138 62 -2 72 1 113 30 25 17 50 40 56 50 7 11 31
120 54 244 47 249 48 252 124 262 63 9 123 41 141 77 21 41 19 99 -6 135 -11
17 -31 51 -45 77 -35 68 -66 82 -165 73 l-79 -7 10 27 c31 81 -4 202 -69 239
-82 47 -231 1 -390 -120 l-69 -53 -27 29 c-69 72 -183 104 -239 66 -33 -21
-33 -40 4 247 43 332 40 319 75 329 23 6 34 3 53 -15 41 -38 108 -30 225 27
343 168 625 503 713 843 22 87 25 113 21 228 -3 111 -8 141 -31 203 -31 83
-76 164 -112 203 l-24 25 31 63 c29 57 31 68 25 124 -8 68 -40 139 -83 183
-16 16 -78 67 -137 114 -59 46 -114 96 -121 110 -8 14 -25 37 -39 52 -14 15
-26 29 -26 31 0 2 36 32 80 66 172 133 315 302 385 454 47 103 58 163 53 276
-4 83 -9 106 -38 166 -151 317 -604 380 -1020 144 -47 -27 -106 -65 -132 -84
l-47 -36 -17 26 c-35 53 -94 67 -175 40 -50 -16 -321 -68 -359 -69 -14 0 -46
1 -71 2 l-46 2 -6 120 c-6 142 -27 198 -81 224 -37 17 -52 18 -106 6z m55
-318 c0 -229 -5 -311 -20 -342 -7 -14 -11 -43 -10 -65 9 -112 -35 -262 -131
-443 -65 -124 -114 -197 -209 -317 -105 -131 -298 -305 -338 -305 -10 0 -37
-16 -60 -35 -52 -44 -79 -45 -105 -2 -46 76 -96 257 -93 341 0 21 -4 45 -11
53 -56 68 13 486 127 765 6 16 4 16 -42 2 -26 -9 -55 -18 -63 -21 -8 -3 -26
-6 -39 -7 -14 -1 -26 -7 -29 -14 -7 -22 -75 -49 -177 -71 -186 -40 -170 -31
-189 -114 -10 -39 -20 -80 -23 -91 -6 -22 -3 -21 147 17 52 13 113 27 135 30
39 6 39 6 15 -8 -25 -14 -25 -14 -2 -15 12 0 25 -7 28 -15 4 -8 12 -15 19 -15
7 0 13 -13 13 -32 1 -18 4 -44 7 -58 6 -25 4 -26 -72 -45 -46 -11 -83 -26 -91
-37 -7 -10 -20 -18 -28 -18 -8 0 -14 -4 -14 -9 0 -4 -48 -21 -106 -37 -122
-32 -115 -23 -139 -164 -9 -52 -19 -104 -22 -114 -5 -17 -1 -18 28 -13 19 4
59 14 89 22 73 21 284 64 289 60 2 -2 -8 -7 -23 -11 -31 -7 -35 -24 -6 -24 11
0 28 -4 38 -9 9 -5 24 -12 33 -14 12 -4 15 -14 13 -39 -3 -24 2 -41 16 -56 11
-11 20 -25 20 -29 0 -5 -30 -14 -67 -20 -88 -16 -155 -35 -168 -49 -24 -26
-73 -47 -186 -79 -67 -20 -136 -41 -153 -49 -177 -75 -182 -75 -246 16 -71
101 -69 116 24 163 l73 38 -1 128 -1 127 -30 5 c-16 2 -33 0 -36 -6 -4 -5 -12
-6 -18 -3 -7 5 -11 45 -11 109 l0 102 76 25 77 25 28 115 c21 84 26 120 19
135 -6 11 -21 52 -34 90 l-24 70 -27 -60 c-59 -129 -140 -403 -186 -624 -21
-102 -58 -376 -61 -451 -1 -42 -2 -40 -7 15 l-6 60 -13 -55 c-7 -30 -19 -61
-27 -70 -7 -8 -15 -30 -17 -49 -2 -19 -9 -36 -16 -39 -7 -2 -10 2 -6 12 3 9 1
16 -5 16 -6 0 -11 -8 -12 -17 -1 -12 -4 -10 -9 7 -4 14 -9 18 -9 10 -1 -13 -2
-13 -11 0 -7 12 -11 8 -16 -17 -3 -17 -12 -34 -20 -37 -8 -3 -14 -13 -14 -21
0 -9 -5 -13 -11 -9 -8 5 -9 55 -4 174 l7 167 -41 76 c-23 42 -41 83 -41 92 0
9 -13 28 -29 43 -16 15 -41 50 -54 77 -21 42 -69 201 -91 298 -8 33 -22 35
-29 5 -2 -13 -21 -86 -40 -163 -50 -192 -95 -426 -109 -562 -7 -62 -16 -113
-21 -113 -5 0 -6 11 -3 25 4 14 2 25 -3 25 -5 0 -12 -12 -16 -27 -4 -16 -15
-36 -26 -46 -10 -10 -19 -24 -19 -32 0 -8 -4 -15 -10 -15 -5 0 -10 5 -10 11 0
5 -4 7 -10 4 -5 -3 -10 -2 -10 3 0 6 -9 8 -20 5 -11 -3 -20 -12 -20 -19 0 -8
-7 -14 -15 -14 -8 0 -15 -4 -15 -10 0 -5 -5 -10 -11 -10 -8 0 -10 43 -8 140 2
77 8 140 12 140 5 0 5 51 2 113 -7 103 -5 123 24 256 39 178 92 373 132 489
39 114 100 234 121 240 9 2 20 17 23 32 14 65 63 71 114 16 14 -15 35 -26 50
-26 64 0 101 -35 101 -92 0 -54 89 -460 104 -475 6 -7 4 -15 46 142 58 216
206 588 260 650 9 11 29 41 44 68 15 26 34 47 42 47 9 0 22 17 31 39 20 52 50
68 90 48 30 -16 113 -100 113 -116 0 -21 -32 -97 -50 -116 -16 -18 -120 -214
-120 -228 0 -6 28 2 100 27 53 18 289 74 509 121 147 31 194 37 141 17 l-24
-9 27 -7 c15 -3 27 -11 27 -16 0 -6 7 -10 15 -10 8 0 16 -9 16 -20 2 -29 3
-32 18 -67 16 -40 24 -41 39 -8 6 14 18 25 25 25 8 0 21 18 30 40 20 51 43 52
96 2 85 -79 107 -127 76 -162 -23 -25 -93 -230 -120 -350 -30 -135 -47 -284
-43 -385 l3 -80 87 90 c170 177 280 348 364 567 50 131 94 335 94 438 0 25 5
52 11 60 7 11 9 3 6 -32 -5 -61 10 -53 19 10 3 26 12 57 19 68 8 12 15 41 17
65 2 24 8 43 13 41 6 -2 9 -10 7 -19 -2 -8 1 -12 7 -8 6 3 12 16 12 28 1 17 3
15 9 -8 5 -21 8 -24 10 -10 l1 20 9 -20 c6 -17 9 -14 15 18 4 20 11 40 16 43
5 3 9 17 9 32 0 21 3 23 13 14 9 -10 12 -62 12 -190z m1674 80 c205 -80 291
-247 232 -453 -22 -76 -39 -112 -94 -194 -46 -67 -181 -211 -242 -258 -33 -25
-30 -20 20 33 l60 63 -74 -52 c-41 -28 -83 -51 -94 -51 -24 0 -89 -39 -82 -49
2 -5 -8 -6 -22 -3 l-26 5 24 20 24 20 -27 -7 c-34 -8 -37 1 -5 15 21 9 21 9
-5 6 -20 -3 -25 0 -20 11 4 11 2 13 -9 6 -16 -11 -89 -13 -89 -3 0 3 29 23 63
43 80 47 234 189 281 259 19 30 42 60 51 67 29 24 41 64 41 135 -1 126 -44
160 -201 159 -101 0 -133 -8 -248 -56 l-48 -21 24 -26 c32 -35 71 -137 72
-184 0 -26 -7 -43 -18 -52 -16 -11 -75 -124 -106 -203 -12 -28 -11 -39 3 -76
9 -24 27 -55 39 -68 13 -13 45 -55 72 -94 27 -38 81 -101 120 -141 38 -40 88
-93 110 -119 22 -26 85 -83 140 -126 105 -84 137 -117 128 -131 -3 -5 3 -15
13 -22 18 -13 17 -14 -6 -8 l-25 6 28 -26 c40 -39 33 -40 -30 -3 -148 83 -248
163 -384 306 -118 123 -158 153 -73 53 68 -80 156 -165 243 -236 40 -33 83
-70 96 -83 30 -30 98 -64 130 -64 14 0 25 -5 25 -11 0 -6 -9 -8 -20 -4 -11 4
-20 2 -20 -4 0 -6 6 -11 13 -11 7 0 5 -5 -5 -11 -20 -11 -88 20 -170 77 -27
19 -53 32 -57 29 -16 -9 -265 223 -365 341 -89 104 -101 114 -108 95 -17 -46
-50 -248 -63 -378 -7 -76 -13 -123 -14 -105 -1 34 -21 36 -21 2 0 -10 -7 -25
-15 -34 -8 -8 -15 -21 -15 -30 0 -8 -4 -18 -10 -21 -5 -3 -10 -1 -10 6 0 8 -4
8 -15 -1 -12 -10 -15 -10 -16 1 0 10 -2 11 -6 1 -2 -6 -9 -10 -14 -6 -5 3 -9
-2 -9 -10 0 -9 -4 -16 -10 -16 -5 0 -10 -7 -10 -16 0 -32 -25 -6 -32 33 -6 38
-21 393 -18 458 1 40 45 234 75 336 14 46 25 93 25 106 0 23 16 62 29 73 7 5
81 165 81 175 0 12 93 125 103 125 14 0 41 39 33 47 -18 18 -195 -157 -251
-247 -19 -30 -43 -61 -54 -68 -12 -7 -21 -23 -21 -36 0 -12 -5 -37 -11 -54
-13 -37 -47 -47 -136 -40 -72 6 -87 24 -78 93 4 28 11 68 17 89 11 44 93 176
109 176 6 0 7 4 4 10 -3 5 6 26 21 45 30 40 31 40 -26 20 -23 -8 -54 -15 -67
-15 -18 0 -23 -4 -20 -14 10 -25 -36 -44 -154 -66 -63 -11 -121 -23 -130 -26
-15 -4 -108 -258 -98 -268 3 -3 41 1 84 9 93 17 126 19 107 7 -9 -6 -3 -14 21
-27 26 -14 34 -25 35 -46 0 -16 8 -39 16 -51 21 -30 20 -38 -4 -38 -29 0 -110
-29 -139 -51 -14 -10 -61 -25 -105 -33 -43 -8 -82 -20 -86 -26 -10 -16 -43
-170 -38 -175 2 -2 26 3 53 11 113 35 409 114 424 113 10 0 12 -2 4 -6 -18 -7
-16 -23 2 -23 29 0 54 -34 60 -84 3 -27 7 -52 10 -56 8 -13 -16 -25 -83 -45
-35 -10 -69 -26 -75 -34 -20 -26 -74 -49 -222 -92 -77 -23 -158 -46 -180 -53
-28 -8 -41 -19 -46 -36 -5 -16 -7 -19 -8 -7 -1 9 -5 17 -11 17 -15 0 -50 -38
-50 -54 0 -19 -23 -33 -28 -17 -3 9 -7 9 -19 0 -8 -7 -13 -8 -12 -3 1 5 1 18
0 29 -1 16 -5 13 -17 -12 -9 -18 -20 -30 -24 -28 -5 3 -11 1 -15 -5 -15 -24
-24 -5 -27 57 -3 66 -3 67 -35 75 -33 9 -59 41 -54 68 5 24 51 80 65 80 8 0
24 8 37 19 18 14 21 22 12 32 -15 18 -9 135 11 214 11 47 12 70 4 107 -10 42
-9 50 7 68 10 11 24 20 32 20 7 0 13 8 13 18 0 29 129 414 143 429 4 3 7 19 7
35 0 26 30 68 48 68 4 0 12 10 17 23 7 15 16 21 30 18 11 -3 31 -5 45 -5 35 1
357 64 403 79 20 7 37 9 37 4 0 -5 -4 -9 -10 -9 -18 0 -11 -20 8 -20 18 -1 63
-30 46 -30 -5 0 -1 -5 9 -11 9 -5 17 -17 17 -25 0 -8 11 -19 24 -26 23 -10 31
-6 88 47 135 123 308 214 478 250 95 21 269 14 339 -13z m-815 -748 c3 -8 2
-12 -4 -9 -6 3 -10 10 -10 16 0 14 7 11 14 -7z m-2359 -905 c26 -7 56 -28 86
-59 52 -53 72 -111 65 -195 -2 -27 -4 -67 -5 -87 -1 -23 -9 -44 -22 -56 -17
-17 -19 -27 -13 -71 4 -29 9 -50 13 -48 61 33 213 98 353 151 282 105 549 177
813 221 173 29 433 45 421 27 -4 -7 -22 -12 -39 -13 -18 0 -41 -4 -52 -8 -16
-7 -13 -9 20 -14 94 -14 115 -20 115 -31 0 -8 2 -8 8 0 5 8 18 7 47 -2 22 -8
28 -11 13 -9 -24 5 -28 2 -25 -17 1 -18 -3 -23 -18 -21 -19 1 -19 0 3 -14 12
-9 22 -20 22 -25 0 -5 -10 -7 -22 -4 -13 3 -5 -3 17 -13 29 -14 34 -20 20 -21
l-20 -1 20 -9 c14 -6 15 -9 5 -10 -11 0 -9 -5 7 -18 39 -30 14 -39 -134 -46
-78 -4 -159 -13 -180 -20 l-38 -13 65 -7 c36 -4 81 -9 100 -12 62 -7 178 -72
248 -139 69 -65 122 -150 122 -195 1 -14 7 -34 15 -44 8 -11 18 -41 21 -68 4
-26 10 -45 14 -43 16 10 2 -201 -19 -279 -24 -89 -97 -278 -146 -377 -87 -171
-233 -351 -357 -436 -101 -70 -119 -77 -235 -103 -96 -20 -106 -21 -150 -7
-27 9 -73 15 -103 15 -99 -1 -141 37 -126 117 7 34 -2 56 -64 165 -11 19 -23
52 -26 73 -4 20 -10 37 -14 37 -5 0 -11 18 -15 40 -4 22 -11 40 -16 40 -14 0
-11 162 6 276 30 199 130 487 196 562 16 18 29 36 29 40 0 17 41 51 54 46 10
-4 21 6 32 28 54 108 102 89 193 -75 47 -85 53 -135 21 -165 -26 -24 -101
-187 -134 -291 -42 -134 -59 -251 -54 -381 6 -130 26 -200 60 -200 68 0 220
117 303 235 57 80 135 237 181 366 36 99 38 110 38 229 1 115 -1 128 -24 168
-19 34 -37 49 -90 74 -70 34 -69 45 1 29 43 -9 44 -9 19 7 -13 9 -32 24 -41
33 -9 9 -40 20 -68 24 -29 4 -64 11 -79 16 -25 8 -25 9 6 4 17 -2 32 0 32 5 0
6 -4 10 -10 10 -16 0 1 30 19 31 12 0 10 3 -6 11 -33 16 -28 31 7 23 17 -4 30
-4 30 -2 0 3 -26 11 -57 18 -54 12 -56 13 -28 20 l30 7 -30 2 c-16 1 -24 4
-17 7 19 7 4 23 -23 23 -13 0 -25 5 -27 11 -2 6 -14 5 -33 -5 -17 -9 -38 -16
-47 -16 -9 0 -23 -6 -30 -13 -7 -7 -56 -23 -108 -35 -207 -49 -250 -63 -255
-86 -8 -39 -52 -220 -118 -481 -76 -299 -137 -596 -166 -807 -12 -82 -21 -150
-21 -153 0 -3 -4 -5 -10 -5 -5 0 -10 19 -11 43 l0 42 -16 -37 c-8 -21 -19 -38
-25 -38 -5 0 -6 -4 -3 -10 3 -5 -1 -22 -9 -37 -8 -16 -15 -22 -16 -15 0 6 -9
12 -20 12 -11 0 -20 5 -20 11 0 8 -4 8 -15 -1 -8 -6 -19 -9 -25 -5 -5 3 -13
-2 -17 -11 -6 -16 -7 -16 -14 2 -7 17 -8 17 -8 1 -1 -10 -6 -15 -11 -12 -6 4
-17 1 -25 -5 -30 -25 -35 0 -33 176 2 135 5 174 15 174 7 0 12 10 12 23 -1 16
-2 18 -6 5 -2 -10 -8 -18 -13 -18 -5 0 -6 9 -2 21 4 11 5 50 1 87 -7 71 -4 97
51 352 31 144 123 519 135 553 4 9 5 17 2 17 -10 0 -230 -99 -290 -131 -21
-11 -46 -17 -56 -14 -13 4 -24 -2 -35 -20 -22 -33 -36 -32 -73 8 -38 40 -118
155 -126 182 -10 30 33 97 73 117 33 16 33 17 10 18 -51 0 -165 39 -182 60
-11 14 -18 39 -18 64 0 24 -3 46 -7 49 -8 9 -99 -42 -173 -96 -97 -72 -290
-281 -290 -315 0 -12 55 -19 210 -28 143 -7 234 -27 327 -69 237 -109 309
-358 178 -615 -174 -340 -661 -660 -1005 -660 -97 0 -201 26 -242 60 -29 25
-22 25 33 1 24 -10 71 -21 104 -24 50 -5 54 -4 22 3 -49 13 -137 58 -137 70 0
6 -11 16 -25 22 -14 6 -25 16 -25 21 0 5 8 3 17 -4 10 -7 3 4 -16 24 -20 21
-38 33 -41 26 -8 -12 -16 -2 -48 57 -12 23 -22 48 -22 55 1 8 10 -3 21 -23 21
-41 34 -50 26 -19 -3 15 -1 18 12 14 9 -3 22 -13 29 -22 10 -13 11 -10 6 19
l-6 35 21 -25 22 -25 -17 42 c-12 32 -13 46 -4 60 10 17 11 17 6 -2 -3 -11 -1
-27 5 -35 8 -12 9 -10 4 7 -3 12 -1 24 5 28 5 3 10 17 10 31 0 37 27 29 49
-13 24 -48 56 -77 72 -67 7 4 10 3 6 -3 -16 -26 152 -32 198 -7 36 19 146 64
154 64 3 -1 -10 -9 -29 -20 -41 -22 -32 -27 10 -5 16 8 31 24 35 34 3 11 22
30 41 41 19 12 32 26 29 30 -3 5 5 14 17 21 13 7 59 40 104 75 136 105 241
234 270 329 13 43 12 50 -2 66 -22 24 -102 50 -156 51 -24 0 -74 6 -111 14
-38 8 -94 14 -126 14 -35 0 -65 6 -77 15 -13 10 -46 14 -107 15 -124 0 -173
30 -201 123 -13 44 -12 51 7 48 12 -2 8 11 -7 23 -10 8 -13 20 -8 41 l6 30 7
-30 c4 -20 5 -17 2 10 -9 66 -3 181 8 164 3 -6 9 -2 12 10 3 14 1 19 -6 14
-18 -11 52 107 109 183 74 99 253 268 354 335 225 150 411 212 535 178z m2962
-28 c228 -47 387 -186 447 -390 10 -35 16 -93 16 -162 0 -171 -49 -314 -168
-494 -127 -191 -374 -405 -514 -446 -39 -11 -35 -3 10 20 36 18 120 81 109 81
-3 0 -29 -11 -59 -25 -29 -14 -63 -25 -76 -25 -13 0 -37 -7 -53 -16 -17 -8
-36 -13 -42 -11 -7 3 3 10 21 17 44 16 36 22 -10 8 -21 -6 -34 -16 -32 -23 4
-8 -13 -14 -52 -19 -31 -3 -59 -4 -62 -1 -3 3 6 5 19 5 13 0 31 5 39 10 13 8
13 10 -2 10 -23 0 -12 29 16 40 18 8 17 9 -11 9 -18 1 -33 5 -33 10 0 6 15 12
33 14 20 2 11 5 -28 7 -50 2 -55 4 -30 10 l30 8 -27 1 c-21 1 -26 5 -21 17 4
12 0 15 -18 12 -22 -3 -26 -13 -51 -128 -33 -147 -73 -378 -88 -505 -16 -138
-20 -156 -31 -149 -5 3 -7 14 -4 23 3 10 1 29 -4 42 -5 13 -10 17 -11 9 0 -8
-9 -33 -20 -55 -10 -22 -16 -44 -13 -49 4 -5 -1 -7 -10 -3 -10 3 -17 2 -17 -2
0 -5 4 -11 10 -13 6 -2 6 -14 1 -33 -6 -18 -10 -23 -10 -11 -1 12 -6 16 -17
12 -11 -4 -18 1 -21 15 -6 21 -7 21 -20 3 -11 -15 -15 -16 -22 -5 -7 10 -11 8
-16 -10 -8 -23 -8 -23 -16 -4 -7 18 -8 18 -8 -5 -1 -18 -4 -21 -10 -11 -7 10
-12 9 -23 -8 -10 -14 -21 -19 -32 -15 -14 5 -16 15 -12 53 5 44 12 203 21 471
2 75 0 117 -5 105 -14 -32 -12 -15 14 111 65 316 192 768 246 874 11 21 20 46
20 54 0 9 14 29 30 46 19 19 30 41 30 58 0 63 48 68 148 16 141 -73 163 -116
118 -234 -55 -143 -191 -598 -182 -607 8 -9 106 18 100 28 -3 5 2 6 11 3 9 -4
29 2 45 15 16 11 32 21 35 21 3 0 32 18 63 39 61 42 114 94 178 176 21 28 47
56 57 63 9 7 17 21 17 30 0 9 8 31 18 47 24 40 34 68 22 60 -5 -3 4 21 20 53
47 95 66 185 52 250 -6 30 -18 65 -27 78 -22 35 -82 69 -144 84 -68 16 -255 8
-326 -14 -27 -9 -62 -16 -76 -16 -14 0 -58 -11 -98 -25 -48 -16 -79 -22 -89
-16 -11 6 -30 -1 -65 -25 -61 -42 -88 -43 -120 -4 -30 35 -97 173 -97 199 0
20 79 97 121 118 43 22 303 101 384 117 158 31 295 33 422 7z m-4191 -1989
c-9 -9 -37 8 -31 18 5 8 11 7 21 -1 8 -6 12 -14 10 -17z m444 -214 c0 -9 3 -9
9 1 13 20 88 8 162 -25 105 -47 177 -154 165 -242 -22 -159 -207 -374 -466
-543 -174 -113 -272 -139 -347 -93 -24 15 -31 7 -13 -14 7 -9 7 -9 -2 -2 -8 7
-13 43 -14 97 -1 54 -6 89 -13 91 -14 5 -15 32 -1 32 6 0 10 -7 10 -15 0 -8 6
-15 14 -15 8 0 16 -6 19 -12 3 -7 3 5 0 27 -2 22 0 51 5 65 8 23 9 22 16 -15
16 -92 36 -145 55 -145 51 0 153 63 273 169 67 60 127 106 132 103 9 -5 -68
-83 -113 -114 -13 -9 -21 -21 -17 -26 6 -10 100 72 223 194 74 75 133 173 133
223 0 26 -17 57 -52 95 -26 28 -22 15 7 -24 33 -45 32 -80 -6 -150 -31 -58
-145 -200 -161 -200 -19 0 -4 23 57 92 69 76 115 155 115 198 0 27 -44 77 -90
101 -38 20 -236 17 -277 -4 -48 -25 -71 -21 -93 16 -30 47 -22 68 36 99 73 39
234 64 234 36z m729 -19 c40 -13 105 -70 127 -111 18 -35 18 -139 -1 -184 -25
-60 -96 -154 -117 -154 -11 0 -17 -4 -14 -8 5 -9 0 -11 -49 -15 -16 -1 -34 -8
-38 -15 -12 -19 -29 -4 -18 17 8 14 4 17 -22 19 -42 3 -44 8 -10 26 76 40 128
113 137 191 7 53 5 63 -12 78 -30 28 -85 32 -158 12 -71 -19 -87 -32 -58 -48
10 -6 31 -23 46 -38 l27 -26 -29 -74 c-16 -41 -29 -79 -30 -85 0 -10 104 -171
119 -184 4 -3 25 -28 49 -56 56 -68 165 -157 231 -187 28 -14 52 -27 52 -31
-1 -16 13 -36 25 -36 16 0 19 -16 4 -25 -5 -3 2 -17 17 -31 l26 -24 -32 0
c-31 0 -126 27 -186 54 -96 42 -131 65 -187 124 -86 88 -88 91 -132 149 -22
29 -43 50 -47 48 -4 -3 -15 -48 -25 -100 -12 -62 -22 -95 -31 -95 -7 0 -18 -8
-24 -18 -8 -12 -20 -17 -35 -14 -23 4 -34 22 -14 22 6 0 10 6 10 13 0 6 -13
-1 -27 -18 l-26 -30 7 50 c4 28 10 84 12 125 9 137 112 460 146 460 5 0 8 10
8 23 -1 22 -1 22 -16 2 -11 -14 -18 -16 -21 -7 -3 6 -8 10 -13 7 -14 -9 -63
56 -51 68 6 6 11 16 11 21 0 6 -5 4 -10 -4 -5 -8 -10 -10 -10 -4 0 31 135 107
221 123 51 10 118 6 168 -10z m3182 -13 c7 -14 9 -40 5 -58 -5 -30 -17 -41
-87 -82 -145 -86 -300 -254 -354 -382 -18 -45 -22 -121 -7 -136 14 -14 88 4
146 35 22 12 48 22 56 23 13 2 70 27 130 59 20 10 30 34 30 73 0 24 -12 27
-72 13 -41 -10 -53 -2 -82 56 -21 41 -15 54 37 75 57 24 112 35 259 53 112 14
129 14 162 0 24 -10 36 -22 36 -35 0 -10 9 -25 20 -33 20 -14 19 -15 -24 -26
-25 -6 -54 -11 -66 -11 -12 0 -40 -10 -63 -22 -23 -13 -44 -24 -45 -25 -2 -1
-23 -102 -46 -226 -37 -197 -45 -227 -69 -252 -14 -16 -37 -30 -49 -31 -13 -1
-31 -5 -40 -9 -15 -6 -17 -3 -13 21 15 84 19 145 15 200 l-5 62 -89 -55 c-50
-29 -101 -56 -115 -59 -15 -3 -43 -10 -63 -16 -20 -6 -55 -8 -77 -5 -84 11
-126 76 -125 192 1 106 44 204 145 332 86 107 267 253 316 253 12 0 25 5 28
11 9 14 44 28 73 28 14 1 26 -8 33 -23z m-2111 -4 c32 -16 35 -21 34 -57 -3
-93 -31 -267 -45 -277 -11 -7 -11 -11 -1 -15 26 -11 -13 -533 -40 -533 -6 0
-7 -8 -4 -17 4 -10 4 -14 0 -11 -8 9 -54 -45 -54 -63 -1 -9 -4 -8 -11 3 -9 17
-12 17 -39 3 -34 -18 -35 -16 -16 45 14 46 32 167 27 185 -1 5 -4 25 -6 45 -1
19 -3 38 -4 43 -2 11 -51 8 -51 -3 0 -6 -27 -10 -60 -10 -55 0 -61 -2 -70 -24
-21 -57 -72 -158 -76 -153 -3 3 -16 -6 -30 -19 -19 -19 -28 -23 -42 -15 -10 6
-28 7 -40 4 -12 -3 -22 -2 -22 1 0 6 32 85 65 161 7 17 18 52 24 78 14 57 96
225 181 369 71 119 116 178 136 178 8 0 14 4 14 9 0 4 11 20 25 35 14 15 25
34 25 42 0 19 36 17 80 -4z m659 -63 c46 -19 49 -23 54 -65 6 -59 -11 -142
-71 -354 -51 -176 -82 -317 -82 -371 0 -16 -4 -29 -9 -29 -5 0 -12 -18 -16
-40 -4 -22 -10 -39 -13 -39 -21 3 -31 -4 -37 -28 l-8 -28 -15 35 c-23 51 -26
295 -6 374 8 32 13 60 11 63 -3 2 -15 -11 -28 -29 -48 -68 -85 -108 -101 -108
-9 0 -20 -5 -23 -10 -4 -6 -10 -8 -15 -5 -5 3 -12 0 -15 -6 -5 -7 -12 -3 -22
10 -8 12 -21 21 -29 21 -20 0 -17 24 6 45 24 22 25 46 5 85 -19 37 -33 38 -41
3 -24 -105 -59 -208 -77 -226 -13 -13 -36 -22 -64 -23 -47 -3 -45 -10 -27 73
3 15 7 55 9 88 4 58 94 430 118 488 11 26 15 28 52 22 21 -3 53 -15 70 -25 27
-16 32 -26 34 -65 1 -25 8 -82 16 -127 8 -46 15 -86 15 -90 0 -5 6 -8 13 -8 8
0 14 6 14 13 0 7 18 39 40 72 49 72 153 252 153 264 0 5 7 12 16 15 8 3 12 10
9 16 -10 15 12 12 64 -11z m537 -4 c9 -14 26 -25 38 -25 35 0 46 -20 46 -85 0
-69 18 -272 26 -295 3 -8 23 37 44 101 44 134 99 258 123 278 9 7 17 20 17 27
0 22 30 16 72 -12 23 -16 38 -35 38 -47 0 -11 -15 -52 -33 -91 -70 -147 -117
-300 -136 -440 -6 -38 -14 -72 -18 -75 -13 -10 -33 -50 -34 -68 0 -16 -1 -16
-11 -2 -10 15 -14 13 -40 -13 l-28 -29 -1 63 c0 35 -3 57 -6 51 -13 -34 -27
-11 -111 177 -11 25 -23 74 -27 108 -4 35 -11 60 -15 55 -4 -4 -29 -97 -56
-205 -26 -109 -51 -193 -55 -187 -4 7 -8 5 -12 -5 -4 -11 -19 -15 -53 -14
l-46 1 6 41 c4 22 9 73 12 111 4 57 53 276 125 568 l10 37 54 0 c47 0 57 -3
71 -25z m-1931 -4 c22 -4 56 -4 75 0 19 4 100 10 180 13 144 6 146 6 166 -17
12 -13 21 -30 21 -38 0 -8 4 -22 8 -31 6 -14 -1 -19 -37 -25 -23 -4 -47 -6
-52 -5 -4 2 -14 -2 -22 -8 -12 -10 -136 -25 -268 -32 l-50 -3 -17 -68 c-9 -37
-14 -69 -10 -71 4 -3 51 1 106 8 113 15 116 14 138 -52 12 -35 12 -42 1 -46
-8 -3 -14 -1 -14 5 0 6 -7 3 -16 -5 -8 -9 -23 -16 -31 -16 -9 0 -24 -6 -32
-14 -9 -7 -56 -18 -104 -23 -48 -6 -90 -13 -92 -15 -3 -2 -8 -19 -11 -38 l-7
-33 75 7 c85 8 148 -9 148 -40 0 -10 7 -25 16 -35 14 -16 11 -18 -37 -29 -29
-7 -60 -13 -68 -14 -9 -1 -26 -7 -38 -14 -11 -6 -47 -14 -80 -17 -74 -7 -93
-13 -93 -30 0 -8 -7 -11 -20 -8 -11 3 -20 10 -20 15 0 5 -7 2 -16 -7 -15 -15
-17 -14 -29 9 -11 21 -19 94 -16 144 1 6 10 12 21 12 16 0 20 7 20 33 0 17 23
123 50 235 28 112 50 209 50 216 0 22 34 56 50 49 8 -3 33 -9 55 -12z m1707
-4 c15 -22 -4 -120 -68 -357 -35 -129 -64 -243 -64 -252 0 -9 -6 -23 -13 -30
-7 -7 -20 -24 -30 -37 -9 -14 -27 -25 -39 -26 -13 -1 -30 -5 -39 -9 -14 -6
-14 2 -2 86 7 51 13 112 13 136 -1 24 14 98 33 165 19 67 40 147 47 177 7 30
18 73 23 95 6 22 11 45 12 50 1 23 113 25 127 2z m-2950 -135 l41 -39 -45
-139 c-25 -76 -54 -174 -64 -216 -9 -43 -20 -76 -22 -73 -3 3 -12 -1 -21 -9
-9 -7 -35 -16 -59 -19 -38 -5 -43 -3 -37 11 4 10 8 58 10 107 2 70 11 115 40
205 41 128 81 210 102 210 8 0 32 -17 55 -38z m-249 -689 c-7 -2 -19 -2 -25 0
-7 3 -2 5 12 5 14 0 19 -2 13 -5z"/>
<path d="M4045 8668 c-2 -7 -11 -51 -20 -98 -9 -47 -25 -115 -35 -152 -10 -38
-16 -68 -14 -68 16 0 45 23 36 29 -7 4 -4 32 9 86 25 106 45 266 24 203z"/>
<path d="M2232 8583 c-87 -190 -149 -383 -187 -583 -8 -41 -15 -84 -15 -95 1
-39 17 7 35 99 9 48 25 102 35 120 10 17 26 65 35 106 9 41 25 93 35 115 10
22 21 59 24 83 4 24 22 82 41 130 19 47 33 88 31 89 -2 2 -17 -27 -34 -64z"/>
<path d="M3090 8582 c-41 -8 -69 -17 -61 -20 19 -6 150 18 157 29 7 11 -3 10
-96 -9z"/>
<path d="M2818 8558 c-27 -6 -48 -15 -48 -20 0 -12 36 -6 115 16 47 14 48 15
15 14 -19 0 -56 -5 -82 -10z"/>
<path d="M3000 8489 c-19 -5 -62 -11 -95 -14 -64 -6 -137 -34 -131 -50 4 -13
-1 -14 141 25 117 32 169 50 135 49 -8 -1 -31 -5 -50 -10z"/>
<path d="M3262 8338 c-54 -189 -84 -365 -81 -488 1 -63 16 -2 23 94 3 50 10
92 14 95 13 9 33 101 27 121 -3 10 -1 21 5 25 5 3 10 27 10 53 0 26 5 64 11
85 6 21 9 43 7 48 -2 6 -9 -9 -16 -33z"/>
<path d="M2257 8338 c-38 -84 -105 -323 -94 -334 2 -2 19 46 37 108 18 62 44
144 56 182 25 74 26 100 1 44z"/>
<path d="M4040 8343 c0 -30 -93 -252 -110 -263 -13 -8 -80 -127 -80 -143 0 -7
-9 -22 -20 -32 -12 -11 -32 -41 -46 -68 -13 -28 -54 -89 -90 -136 l-65 -86 60
65 c96 102 187 235 251 365 74 151 131 315 109 315 -5 0 -9 -8 -9 -17z"/>
<path d="M2526 8288 c-14 -50 -36 -161 -33 -165 2 -2 11 -1 19 2 12 5 17 28
20 93 6 93 4 106 -6 70z"/>
<path d="M1477 8173 c-48 -154 -68 -247 -112 -518 -3 -21 -2 -25 4 -15 5 8 19
66 31 129 12 62 27 123 35 135 16 26 40 124 36 153 -1 11 3 24 8 28 6 3 11 21
11 38 0 18 7 61 15 96 9 35 14 66 12 67 -2 2 -20 -49 -40 -113z"/>
<path d="M3885 8261 c-3 -5 -1 -12 5 -16 5 -3 10 1 10 9 0 18 -6 21 -15 7z"/>
<path d="M1720 8240 c0 -65 121 -453 136 -437 3 3 -7 39 -21 81 -15 42 -28 99
-30 127 -2 27 -11 64 -19 81 -9 17 -16 40 -16 51 0 12 -9 40 -21 64 -21 43
-29 52 -29 33z"/>
<path d="M1851 8180 c-1 -14 6 -50 14 -80 9 -30 21 -75 27 -100 6 -25 13 -40
15 -34 4 12 -31 177 -46 214 l-10 25 0 -25z"/>
<path d="M3327 8148 c-13 -47 -33 -208 -22 -183 10 23 47 227 42 231 -3 3 -12
-18 -20 -48z"/>
<path d="M3851 8143 c-16 -32 -52 -95 -80 -141 -53 -86 -58 -98 -41 -87 28 17
111 162 151 263 17 42 -1 22 -30 -35z"/>
<path d="M2896 8124 c-26 -7 -51 -16 -55 -19 -9 -9 86 5 134 20 l40 13 -35 0
c-19 0 -57 -6 -84 -14z"/>
<path d="M1569 8084 c-19 -50 -29 -86 -49 -183 -20 -93 -21 -138 -1 -65 5 22
24 90 40 153 29 110 34 156 10 95z"/>
<path d="M2715 8100 c-19 -8 -19 -9 3 -9 12 -1 22 4 22 9 0 6 -1 10 -2 9 -2 0
-12 -4 -23 -9z"/>
<path d="M2795 8030 c-33 -11 -72 -20 -87 -20 -28 0 -43 -13 -33 -29 5 -8 190
51 204 65 9 9 -27 2 -84 -16z"/>
<path d="M3656 7933 c-6 -14 -5 -15 5 -6 7 7 10 15 7 18 -3 3 -9 -2 -12 -12z"/>
<path d="M2552 7870 c0 -14 2 -19 5 -12 2 6 2 18 0 25 -3 6 -5 1 -5 -13z"/>
<path d="M2436 7844 c-4 -15 -9 -49 -11 -78 -6 -69 12 -26 21 50 7 57 1 73
-10 28z"/>
<path d="M1910 7840 c0 -18 62 -172 67 -166 7 6 -47 165 -59 172 -4 3 -8 0 -8
-6z"/>
<path d="M3244 7804 c-3 -25 -2 -78 3 -117 l10 -72 2 118 c0 64 -1 117 -3 117
-3 0 -8 -21 -12 -46z"/>
<path d="M2078 7800 c-3 -17 -1 -33 4 -36 4 -3 8 1 8 8 0 7 3 23 6 36 4 12 2
22 -4 22 -5 0 -12 -14 -14 -30z"/>
<path d="M2487 7726 c-11 -27 -19 -111 -11 -103 13 12 33 107 24 112 -4 3 -10
-1 -13 -9z"/>
<path d="M1423 7595 c-13 -58 -28 -202 -20 -195 9 8 39 198 35 222 -3 16 -7 7
-15 -27z"/>
<path d="M2835 7602 c-33 -8 -54 -17 -46 -20 15 -5 128 17 151 29 25 14 -39 9
-105 -9z"/>
<path d="M2621 7579 c-40 -16 -18 -20 30 -5 31 10 37 14 19 14 -14 1 -36 -4
-49 -9z"/>
<path d="M2726 7500 c-33 -10 -63 -17 -68 -14 -5 3 -24 0 -43 -6 -25 -8 -35
-18 -35 -32 0 -15 4 -18 18 -13 9 4 62 23 117 42 55 19 102 37 104 39 10 10
-39 1 -93 -16z"/>
<path d="M2550 7434 c0 -8 5 -12 10 -9 6 4 8 11 5 16 -9 14 -15 11 -15 -7z"/>
<path d="M5727 8943 c-4 -3 -7 -11 -7 -17 0 -6 5 -5 12 2 6 6 9 14 7 17 -3 3
-9 2 -12 -2z"/>
<path d="M5515 8890 c-63 -13 -157 -41 -152 -46 3 -3 36 2 73 11 38 9 114 19
169 22 84 4 109 2 160 -15 67 -23 88 -21 31 3 -78 33 -191 43 -281 25z"/>
<path d="M5555 8803 c-22 -3 -45 -9 -53 -15 -7 -6 -36 -16 -66 -23 -54 -13
-234 -123 -272 -167 -11 -12 10 -1 46 24 143 100 266 142 415 143 150 0 215
-36 236 -133 7 -32 8 -30 4 13 -4 42 -10 55 -39 80 -56 50 -186 87 -271 78z"/>
<path d="M4521 8649 c-24 -5 -46 -11 -49 -14 -11 -11 75 -4 113 10 38 13 38
14 10 13 -16 0 -50 -4 -74 -9z"/>
<path d="M4718 8653 c-16 -2 -28 -9 -28 -14 0 -10 58 -3 95 12 16 6 15 8 -10
7 -16 -1 -42 -3 -57 -5z"/>
<path d="M5922 8577 c-14 -77 -36 -125 -96 -212 -56 -81 -64 -97 -26 -55 84
93 143 215 138 289 l-3 46 -13 -68z"/>
<path d="M4547 8562 c-9 -2 -17 -8 -17 -14 0 -5 -6 -8 -12 -5 -16 5 -48 -10
-48 -23 0 -6 17 -8 43 -4 41 6 189 43 195 49 4 4 -139 1 -161 -3z"/>
<path d="M4206 8418 c-31 -87 -88 -270 -84 -273 2 -2 13 -2 24 1 16 4 20 12
16 29 -2 14 3 31 12 40 10 11 16 34 16 63 0 26 9 76 20 111 22 74 20 94 -4 29z"/>
<path d="M5117 8323 c-4 -3 -7 -11 -7 -17 0 -6 5 -5 12 2 6 6 9 14 7 17 -3 3
-9 2 -12 -2z"/>
<path d="M4257 8206 c-9 -20 -12 -36 -7 -36 12 0 32 48 28 62 -2 5 -11 -7 -21
-26z"/>
<path d="M4345 8110 c-19 -8 -19 -9 3 -9 12 -1 22 4 22 9 0 6 -1 10 -2 9 -2 0
-12 -4 -23 -9z"/>
<path d="M4460 8100 c-23 -7 -22 -8 10 -8 19 0 44 3 55 8 17 7 15 9 -10 8 -16
0 -41 -4 -55 -8z"/>
<path d="M5017 8043 c-19 -70 -54 -249 -61 -318 -9 -78 10 -22 28 85 9 50 25
110 35 133 30 69 43 115 36 137 -11 34 -22 23 -38 -37z"/>
<path d="M4415 8030 c-11 -4 -36 -6 -55 -3 -26 3 -40 0 -49 -11 -8 -9 -11 -19
-8 -22 9 -10 148 27 141 37 -3 5 -6 9 -7 8 -1 0 -11 -4 -22 -9z"/>
<path d="M5110 7960 c0 -14 -7 -46 -15 -72 -8 -27 -11 -48 -7 -48 13 0 41 124
31 135 -5 5 -9 0 -9 -15z"/>
<path d="M5230 7934 c0 -18 208 -271 236 -287 26 -15 15 2 -47 70 -34 38 -88
103 -121 146 -55 72 -68 86 -68 71z"/>
<path d="M4068 7905 c-3 -5 -9 -37 -12 -70 l-6 -60 15 50 c15 48 17 100 3 80z"/>
<path d="M4117 7793 c-11 -19 -18 -73 -9 -73 5 0 13 16 17 36 6 35 2 54 -8 37z"/>
<path d="M4620 7744 c-59 -16 -98 -42 -45 -30 58 13 135 37 135 41 0 8 -33 4
-90 -11z"/>
<path d="M4340 7700 c-36 -10 -76 -24 -90 -29 -21 -9 -17 -10 24 -5 27 3 63
12 80 19 17 7 42 18 56 23 39 16 2 12 -70 -8z"/>
<path d="M5017 7678 c-11 -44 -29 -229 -24 -235 8 -7 13 20 28 145 11 94 9
145 -4 90z"/>
<path d="M4560 7653 c-14 -2 -52 -13 -85 -23 -33 -11 -67 -19 -75 -18 -25 3
-90 -14 -90 -23 0 -5 -10 -9 -22 -9 -23 -1 -93 -50 -71 -50 19 0 357 111 368
121 5 5 7 8 5 8 -3 -1 -16 -4 -30 -6z"/>
<path d="M5601 7653 c6 -15 121 -113 133 -113 6 0 -14 21 -43 48 -66 57 -95
78 -90 65z"/>
<path d="M5447 7625 c28 -40 193 -187 193 -172 0 3 -48 49 -107 103 -59 55
-98 86 -86 69z"/>
<path d="M2221 7120 c-57 -33 -128 -79 -158 -101 -95 -74 -244 -242 -304 -344
-33 -55 -15 -41 26 20 52 80 131 167 168 188 18 10 31 22 29 28 -1 6 2 8 7 5
5 -3 29 14 55 37 25 24 49 41 52 38 3 -3 4 0 2 8 -3 13 112 102 184 141 30 16
58 41 46 40 -2 0 -50 -27 -107 -60z"/>
<path d="M4025 7003 c-101 -13 -239 -45 -184 -42 39 2 279 47 249 46 -19 0
-48 -2 -65 -4z"/>
<path d="M2214 6937 c-71 -41 -139 -98 -156 -132 -6 -12 5 -6 28 16 22 20 62
53 89 74 63 49 70 55 65 55 -3 0 -15 -6 -26 -13z"/>
<path d="M3460 6920 c-13 -9 -13 -10 0 -10 8 0 22 5 30 10 13 9 13 10 0 10 -8
0 -22 -5 -30 -10z"/>
<path d="M3656 6829 c-54 -16 -101 -31 -104 -34 -12 -12 30 -3 138 29 63 19
104 35 90 34 -14 0 -70 -13 -124 -29z"/>
<path d="M3140 6650 c-9 -6 -10 -10 -3 -10 6 0 15 5 18 10 8 12 4 12 -15 0z"/>
<path d="M4474 6570 c32 -61 51 -130 60 -225 2 -22 3 -4 1 40 -3 89 -31 178
-71 223 -19 22 -18 16 10 -38z"/>
<path d="M4610 6573 c0 -4 5 -15 10 -23 8 -13 10 -13 10 2 0 9 -4 20 -10 23
-5 3 -10 3 -10 -2z"/>
<path d="M1771 6500 c-12 -28 -21 -56 -19 -62 2 -6 14 15 26 48 27 73 22 82
-7 14z"/>
<path d="M3121 6243 c-38 -157 -91 -433 -91 -477 0 -39 9 -8 25 89 9 55 25
118 35 139 11 22 17 43 14 48 -3 4 -1 8 4 8 11 0 27 83 24 118 -2 13 3 47 11
75 15 52 31 167 23 167 -2 0 -22 -75 -45 -167z"/>
<path d="M4621 6235 c-9 -102 -60 -280 -90 -312 -23 -24 -81 -148 -85 -180 -2
-11 -16 -43 -32 -69 -16 -26 -42 -71 -59 -100 -16 -29 -36 -63 -44 -76 -13
-21 -13 -22 2 -10 30 25 146 207 182 286 73 160 147 420 131 459 -2 7 -5 8 -5
2z"/>
<path d="M3266 6195 c-4 -16 -14 -50 -22 -75 -8 -25 -16 -67 -19 -95 -4 -36 3
-20 25 60 16 61 28 117 26 125 -1 8 -6 2 -10 -15z"/>
<path d="M3547 6138 c-14 -46 -30 -110 -36 -143 -15 -86 -25 -282 -15 -272 5
5 10 45 11 89 2 48 8 90 16 102 8 12 17 38 21 59 4 21 10 46 13 54 4 10 2 14
-4 10 -8 -5 -8 5 -2 31 18 72 30 144 26 148 -2 3 -16 -33 -30 -78z"/>
<path d="M2443 6101 c32 -39 34 -63 7 -138 -31 -88 -96 -180 -208 -292 -57
-57 -89 -93 -71 -81 19 13 75 66 126 117 51 51 98 93 104 93 7 0 10 3 6 6 -3
4 2 14 12 23 23 20 78 117 61 106 -8 -5 -10 -2 -6 11 22 74 23 103 5 133 -10
16 -28 35 -41 42 -21 11 -20 10 5 -20z"/>
<path d="M3667 6013 c-9 -29 -17 -67 -16 -85 1 -25 6 -14 20 42 22 89 20 116
-4 43z"/>
<path d="M2611 5965 c-7 -33 -28 -85 -46 -115 -46 -78 -68 -123 -56 -116 37
23 126 224 119 270 -2 11 -9 -6 -17 -39z"/>
<path d="M4339 5833 c-31 -63 -48 -106 -37 -97 10 10 18 22 18 28 0 6 11 27
23 46 25 36 63 128 56 134 -2 1 -29 -48 -60 -111z"/>
<path d="M2469 5693 c-13 -16 -12 -17 4 -4 16 13 21 21 13 21 -2 0 -10 -8 -17
-17z"/>
<path d="M3107 5673 c-8 -14 -39 -212 -35 -224 2 -7 13 42 25 107 19 113 21
136 10 117z"/>
<path d="M3596 5617 c3 -32 12 -77 19 -100 19 -61 16 -25 -5 73 -18 77 -19 80
-14 27z"/>
<path d="M2020 5580 c-9 -6 -10 -10 -3 -10 6 0 15 5 18 10 8 12 4 12 -15 0z"/>
<path d="M3481 5544 c0 -11 3 -14 6 -6 3 7 2 16 -1 19 -3 4 -6 -2 -5 -13z"/>
<path d="M2060 5417 c-41 -23 -113 -56 -160 -74 -47 -18 -77 -32 -67 -33 42 0
307 125 307 145 0 7 2 8 -80 -38z"/>
<path d="M1788 5303 c7 -3 16 -2 19 1 4 3 -2 6 -13 5 -11 0 -14 -3 -6 -6z"/>
<path d="M5745 7078 c60 -43 112 -106 145 -175 19 -40 36 -70 38 -69 7 7 -37
106 -66 148 -29 43 -119 118 -138 118 -5 0 5 -10 21 -22z"/>
<path d="M5523 7000 c116 -21 192 -72 233 -156 23 -47 27 -68 26 -137 0 -55
-7 -102 -20 -142 -13 -38 -16 -53 -7 -41 21 28 44 141 46 232 2 72 0 86 -25
127 -14 26 -30 46 -34 45 -4 -1 -32 14 -62 34 -47 31 -65 37 -130 42 -63 4
-67 3 -27 -4z"/>
<path d="M5746 6330 c-25 -39 -78 -104 -118 -145 -39 -42 -69 -78 -66 -81 9
-8 145 144 194 217 25 39 44 72 42 75 -3 2 -26 -27 -52 -66z"/>
<path d="M4890 6331 c-6 -23 -24 -84 -40 -136 -38 -123 -101 -445 -87 -445 2
0 12 44 22 98 9 53 25 108 34 122 20 28 45 123 43 159 -1 13 4 47 12 75 17 59
35 159 31 165 -2 1 -9 -16 -15 -38z"/>
<path d="M5575 6303 l-17 -28 23 22 c12 12 20 25 17 28 -3 3 -13 -7 -23 -22z"/>
<path d="M4976 6085 c-15 -48 -26 -96 -24 -108 2 -12 16 25 31 82 15 57 26
105 24 108 -3 2 -17 -35 -31 -82z"/>
<path d="M4751 5724 c0 -11 3 -14 6 -6 3 7 2 16 -1 19 -3 4 -6 -2 -5 -13z"/>
<path d="M4817 5565 c-22 -122 -31 -191 -24 -185 8 8 49 250 44 264 -2 6 -11
-29 -20 -79z"/>
<path d="M4691 5544 c0 -11 3 -14 6 -6 3 7 2 16 -1 19 -3 4 -6 -2 -5 -13z"/>
<path d="M2101 4722 c-25 -50 -108 -169 -124 -179 -7 -5 -20 -19 -31 -33 -10
-14 12 7 51 46 63 65 142 188 130 201 -3 3 -15 -13 -26 -35z"/>
<path d="M1986 4509 c-11 -11 -17 -21 -14 -24 2 -3 13 4 23 15 24 26 16 33 -9
9z"/>
<path d="M1870 4470 c0 -5 7 -10 16 -10 8 0 12 5 9 10 -3 6 -10 10 -16 10 -5
0 -9 -4 -9 -10z"/>
<path d="M1710 4345 c-48 -37 -156 -95 -183 -99 -24 -3 -33 -16 -11 -16 38 0
229 108 249 140 11 19 -10 9 -55 -25z"/>
<path d="M1385 4290 c-3 -5 -1 -10 4 -10 6 0 11 5 11 10 0 6 -2 10 -4 10 -3 0
-8 -4 -11 -10z"/>
<path d="M2550 4997 c14 -6 44 -26 67 -44 31 -25 40 -28 36 -15 -6 23 -80 72
-108 71 -18 0 -17 -2 5 -12z"/>
<path d="M2459 4949 c-10 -6 -5 -9 19 -9 44 0 98 -24 111 -48 6 -12 11 -38 12
-59 l1 -38 9 30 c5 18 5 41 -1 58 -5 15 -6 27 -3 27 3 0 -6 9 -21 21 -28 22
-103 33 -127 18z"/>
<path d="M2630 4783 c0 -11 -14 -38 -31 -61 -17 -24 -29 -45 -26 -48 6 -6 37
37 61 83 10 20 12 34 6 38 -6 3 -10 -2 -10 -12z"/>
<path d="M2217 4603 c-29 -93 -51 -192 -43 -200 3 -3 8 8 11 23 4 16 15 54 25
84 24 72 44 160 37 166 -3 3 -17 -29 -30 -73z"/>
<path d="M2245 4490 c3 -5 8 -10 11 -10 2 0 4 5 4 10 0 6 -5 10 -11 10 -5 0
-7 -4 -4 -10z"/>
<path d="M2330 4457 c0 -14 75 -120 112 -157 56 -58 129 -122 134 -117 2 2
-15 24 -38 48 -104 108 -174 185 -190 208 -10 14 -18 22 -18 18z"/>
<path d="M2245 4410 c-3 -6 1 -7 9 -4 18 7 21 14 7 14 -6 0 -13 -4 -16 -10z"/>
<path d="M2206 4382 c-13 -21 -18 -92 -7 -92 7 0 9 5 6 10 -4 6 -1 26 5 46 11
33 9 56 -4 36z"/>
<path d="M2469 4373 c5 -10 24 -31 42 -48 l33 -30 -18 28 c-30 48 -80 91 -57
50z"/>
<path d="M2625 4198 c6 -15 96 -68 116 -68 12 0 4 15 -9 15 -4 1 -25 12 -47
26 -64 41 -65 41 -60 27z"/>
<path d="M5343 4773 c-111 -133 -155 -228 -156 -338 -1 -57 3 -78 21 -105 25
-41 29 -33 6 12 -12 23 -15 49 -12 97 6 75 58 194 129 291 71 98 78 121 12 43z"/>
<path d="M5870 4700 c-12 -8 -10 -10 10 -9 14 1 36 5 50 9 23 7 22 8 -10 9
-19 0 -42 -4 -50 -9z"/>
<path d="M5314 4623 c-33 -52 -58 -112 -51 -120 2 -1 24 38 49 87 26 50 45 90
43 90 -3 0 -21 -26 -41 -57z"/>
<path d="M5848 4653 c7 -3 16 -2 19 1 4 3 -2 6 -13 5 -11 0 -14 -3 -6 -6z"/>
<path d="M5692 4500 c0 -14 2 -19 5 -12 2 6 2 18 0 25 -3 6 -5 1 -5 -13z"/>
<path d="M5744 4426 c-3 -21 -4 -39 -1 -42 2 -3 8 11 11 32 4 20 5 38 2 41 -2
3 -8 -11 -12 -31z"/>
<path d="M5677 4416 c-3 -7 -9 -35 -12 -62 -8 -54 2 -55 15 -2 5 18 12 43 15
56 8 24 -9 32 -18 8z"/>
<path d="M5435 4329 c-34 -14 -66 -20 -102 -17 -52 3 -68 -4 -37 -16 36 -14
139 8 179 38 26 20 20 19 -40 -5z"/>
<path d="M5698 4285 c-4 -11 -9 -36 -12 -55 l-6 -35 16 34 c8 18 14 43 12 55
-4 20 -4 20 -10 1z"/>
<path d="M5247 4279 c7 -7 15 -10 18 -7 3 3 -2 9 -12 12 -14 6 -15 5 -6 -5z"/>
<path d="M3369 4732 c-33 -52 -109 -205 -109 -220 0 -9 21 14 36 40 29 50 116
230 112 233 -1 2 -19 -22 -39 -53z"/>
<path d="M3530 4730 c-1 -19 -3 -44 -5 -54 -6 -32 -9 -276 -3 -281 13 -13 29
305 18 343 -8 26 -8 26 -10 -8z"/>
<path d="M3467 4655 c-15 -25 -27 -50 -27 -56 0 -6 -5 -7 -12 -3 -7 4 -8 3 -4
-4 4 -6 0 -25 -9 -41 -21 -41 -20 -41 24 -41 22 0 41 -5 44 -12 2 -7 7 3 10
22 10 56 15 180 8 180 -3 0 -18 -20 -34 -45z"/>
<path d="M3390 4633 c-31 -49 -41 -83 -14 -48 21 27 56 95 49 95 -3 0 -19 -21
-35 -47z"/>
<path d="M3595 4668 c-8 -22 -12 -159 -4 -151 4 4 9 43 12 86 5 73 2 93 -8 65z"/>
<path d="M3347 4553 c-4 -3 -7 -11 -7 -17 0 -6 5 -5 12 2 6 6 9 14 7 17 -3 3
-9 2 -12 -2z"/>
<path d="M3240 4486 c0 -2 -7 -20 -15 -40 -20 -48 -10 -46 15 4 11 22 16 40
10 40 -5 0 -10 -2 -10 -4z"/>
<path d="M3430 4439 c0 -11 27 -12 34 -1 2 4 -4 9 -15 9 -10 1 -19 -2 -19 -8z"/>
<path d="M3219 4340 c-20 -39 -33 -73 -28 -75 4 -3 19 21 34 52 14 32 30 66
35 76 6 9 7 17 3 17 -5 0 -24 -32 -44 -70z"/>
<path d="M3340 4400 c0 -5 21 -9 48 -9 42 1 44 2 17 9 -44 11 -65 11 -65 0z"/>
<path d="M3550 4323 c0 -21 -3 -56 -5 -78 -4 -28 -3 -34 3 -20 13 30 22 135
11 135 -5 0 -9 -17 -9 -37z"/>
<path d="M4164 4803 c-10 -16 -31 -50 -49 -78 -51 -81 -96 -165 -88 -165 4 0
18 17 31 38 13 20 41 62 62 92 34 48 77 140 65 140 -3 0 -12 -12 -21 -27z"/>
<path d="M3778 4685 c-40 -138 -48 -170 -48 -194 1 -17 12 3 30 53 16 43 27
82 24 87 -3 5 0 18 6 29 6 12 10 35 8 53 -3 29 -5 26 -20 -28z"/>
<path d="M3931 4689 c0 -19 5 -43 10 -54 6 -13 7 -4 3 30 -8 60 -14 72 -13 24z"/>
<path d="M4141 4640 c-11 -22 -16 -40 -11 -40 6 0 10 5 10 12 0 6 9 22 21 34
12 12 16 24 11 28 -6 3 -19 -12 -31 -34z"/>
<path d="M3822 4598 c-18 -71 -20 -88 -13 -83 9 5 35 115 28 121 -2 3 -9 -15
-15 -38z"/>
<path d="M3881 4588 c0 -7 4 -22 9 -33 8 -18 9 -17 9 7 1 15 -3 30 -9 33 -5 3
-10 0 -9 -7z"/>
<path d="M4232 4558 c-16 -61 -25 -114 -19 -108 10 10 45 150 38 150 -5 0 -13
-19 -19 -42z"/>
<path d="M4173 4579 c-6 -8 -19 -48 -28 -89 -9 -41 -21 -91 -26 -110 -7 -32
-7 -33 6 -16 8 11 15 26 15 34 0 8 12 50 26 93 26 79 29 114 7 88z"/>
<path d="M3936 4523 c10 -40 14 -41 14 -5 0 18 -5 32 -10 32 -6 0 -8 -11 -4
-27z"/>
<path d="M4030 4505 c0 -8 2 -15 4 -15 2 0 6 7 10 15 3 8 1 15 -4 15 -6 0 -10
-7 -10 -15z"/>
<path d="M3721 4444 c0 -11 3 -14 6 -6 3 7 2 16 -1 19 -3 4 -6 -2 -5 -13z"/>
<path d="M3756 4419 c-2 -8 -9 -29 -15 -48 -6 -19 -11 -41 -10 -50 1 -9 10 11
20 43 11 33 17 61 14 64 -2 3 -6 -1 -9 -9z"/>
<path d="M4147 4311 c-4 -18 -7 -52 -6 -75 l1 -41 9 45 c5 25 8 59 7 75 l-3
30 -8 -34z"/>
<path d="M4698 4810 c-3 -14 -22 -95 -42 -180 -20 -85 -35 -161 -34 -169 4
-20 57 167 75 263 13 74 14 143 1 86z"/>
<path d="M5041 4721 c-27 -71 -37 -108 -57 -211 -3 -18 -2 -21 5 -10 4 8 12
33 16 55 4 22 11 46 17 53 12 13 59 184 54 190 -2 2 -18 -33 -35 -77z"/>
<path d="M4811 4735 c-1 -41 26 -215 34 -223 4 -4 4 25 -1 63 -4 39 -7 96 -7
128 0 32 -4 53 -7 46 -6 -8 -9 -7 -13 2 -3 8 -6 1 -6 -16z"/>
<path d="M4739 4694 c-14 -36 -24 -101 -15 -93 10 9 37 112 31 117 -2 3 -9 -8
-16 -24z"/>
<path d="M4881 4680 c1 -67 17 -99 18 -35 0 28 -4 57 -9 65 -7 11 -10 3 -9
-30z"/>
<path d="M5085 4650 c-9 -28 -14 -54 -11 -57 3 -3 8 0 10 8 21 66 27 91 23 95
-3 3 -13 -18 -22 -46z"/>
<path d="M4711 4574 c0 -11 3 -14 6 -6 3 7 2 16 -1 19 -3 4 -6 -2 -5 -13z"/>
<path d="M4883 4506 c3 -8 9 -31 13 -50 3 -20 9 -34 13 -31 10 6 -11 95 -22
95 -5 0 -7 -6 -4 -14z"/>
<path d="M5017 4467 c-9 -23 -20 -107 -14 -107 7 0 30 110 24 116 -2 3 -7 -2
-10 -9z"/>
<path d="M4641 4383 c-7 -26 -14 -56 -18 -67 -3 -10 -1 -16 4 -13 11 7 38 115
31 122 -3 3 -11 -16 -17 -42z"/>
<path d="M3014 4918 c-3 -4 19 -8 48 -7 57 1 55 5 -5 11 -21 2 -40 0 -43 -4z"/>
<path d="M2831 4904 c0 -11 3 -14 6 -6 3 7 2 16 -1 19 -3 4 -6 -2 -5 -13z"/>
<path d="M3240 4910 l-45 -7 53 -1 c33 -1 51 2 47 8 -3 6 -7 9 -8 8 -1 0 -22
-4 -47 -8z"/>
<path d="M2995 4853 c-36 -12 -27 -12 80 -7 66 3 124 9 129 14 14 13 -164 7
-209 -7z"/>
<path d="M2801 4788 c-6 -18 -14 -51 -20 -73 -5 -22 -12 -49 -17 -60 -8 -19
-8 -19 13 0 20 19 25 36 40 128 7 46 -2 48 -16 5z"/>
<path d="M2857 4743 c-11 -19 -18 -73 -9 -73 5 0 12 17 15 37 6 36 4 52 -6 36z"/>
<path d="M3051 4623 c-9 -10 -6 -13 16 -13 43 0 62 16 26 22 -17 2 -35 -2 -42
-9z"/>
<path d="M2904 4621 c5 -8 56 -3 56 5 0 2 -14 4 -31 4 -16 0 -28 -4 -25 -9z"/>
<path d="M2756 4599 c-9 -30 -13 -69 -6 -69 8 0 22 71 15 78 -3 3 -7 -1 -9 -9z"/>
<path d="M2912 4568 c-55 -15 -35 -25 33 -17 86 11 117 27 49 26 -27 0 -64 -5
-82 -9z"/>
<path d="M2741 4504 c0 -11 3 -14 6 -6 3 7 2 16 -1 19 -3 4 -6 -2 -5 -13z"/>
<path d="M2777 4494 c-4 -4 -7 -17 -7 -28 1 -19 1 -20 11 -3 11 19 8 43 -4 31z"/>
<path d="M2929 4390 c-41 -10 -7 -18 46 -11 49 7 49 7 14 12 -19 2 -46 2 -60
-1z"/>
<path d="M2985 4360 c-3 -5 -2 -10 4 -10 5 0 13 5 16 10 3 6 2 10 -4 10 -5 0
-13 -4 -16 -10z"/>
<path d="M2920 4345 c-7 -9 -8 -15 -2 -15 5 0 12 7 16 15 3 8 4 15 2 15 -2 0
-9 -7 -16 -15z"/>
<path d="M2810 4342 c-5 -2 -10 -11 -10 -20 0 -10 3 -13 8 -7 9 12 52 15 52 3
0 -4 9 -3 20 4 11 7 20 15 20 18 0 6 -72 7 -90 2z"/>
<path d="M4444 4663 c-23 -90 -38 -161 -34 -158 5 3 12 20 15 38 4 17 15 52
25 77 24 60 43 149 39 180 -3 14 -22 -44 -45 -137z"/>
<path d="M4516 4684 c-18 -54 -22 -90 -6 -63 10 18 31 102 26 107 -2 2 -11
-18 -20 -44z"/>
<path d="M4432 4455 c-20 -75 -24 -95 -18 -95 8 0 38 109 33 123 -2 6 -9 -6
-15 -28z"/>
<path d="M1542 4668 c-27 -82 -46 -168 -39 -174 3 -3 8 10 12 28 4 18 16 49
26 69 17 35 37 139 26 139 -3 0 -14 -28 -25 -62z"/>
<path d="M1599 4634 c-14 -38 -19 -115 -7 -108 5 3 7 12 4 19 -2 7 2 34 10 61
16 52 11 73 -7 28z"/>
<path d="M1525 4442 c-4 -24 -5 -46 -2 -49 8 -7 20 63 14 79 -2 7 -7 -6 -12
-30z"/>
</g>
</svg>
