<?xml version="1.0" standalone="no"?>
<!DOCTYPE svg PUBLIC "-//W3C//DTD SVG 20010904//EN"
 "http://www.w3.org/TR/2001/REC-SVG-20010904/DTD/svg10.dtd">
<svg version="1.0" xmlns="http://www.w3.org/2000/svg"
 width="736.000000pt" height="1308.000000pt" viewBox="0 0 736.000000 1308.000000"
 preserveAspectRatio="xMidYMid meet">

<g transform="translate(0.000000,1308.000000) scale(0.100000,-0.100000)"
fill="#000000" stroke="none">
<path d="M2780 6540 l0 -6540 2290 0 2290 0 0 6540 0 6540 -2290 0 -2290 0 0
-6540z m812 1528 c66 -28 130 -102 159 -181 21 -58 23 -82 27 -349 2 -185 0
-312 -8 -359 -21 -142 -83 -235 -185 -281 -40 -18 -68 -22 -145 -23 -52 0
-114 6 -137 13 -100 30 -179 132 -202 260 -9 47 -12 157 -9 372 4 338 8 365
71 456 38 55 113 101 184 114 70 13 189 2 245 -22z m2056 -9 c71 -35 108 -77
144 -168 22 -54 23 -65 23 -396 0 -377 -4 -404 -66 -499 -58 -87 -165 -132
-298 -124 -145 9 -241 78 -290 209 -24 61 -25 76 -29 351 -4 315 3 399 44 488
60 130 163 185 334 174 57 -3 90 -11 138 -35z m-1594 -31 c3 -29 20 -199 36
-377 17 -178 32 -326 34 -328 3 -4 8 30 69 507 l32 245 87 3 87 3 5 -33 c6
-39 73 -567 82 -650 4 -32 10 -58 13 -58 6 0 23 160 62 570 5 52 11 112 15
133 l6 37 99 0 c54 0 99 -4 99 -9 0 -4 -23 -170 -50 -367 -28 -197 -64 -456
-80 -574 -17 -118 -32 -221 -35 -227 -3 -9 -33 -13 -103 -13 l-99 0 -7 48
c-24 175 -86 667 -86 686 0 5 -3 6 -7 2 -4 -3 -27 -169 -52 -369 l-46 -362
-102 -3 -102 -3 -5 33 c-3 18 -24 166 -46 328 -22 162 -45 327 -50 365 -33
226 -60 430 -60 446 0 17 9 19 99 19 l99 0 6 -52z m2340 19 c128 -47 177 -119
184 -268 7 -151 -34 -250 -119 -295 -16 -8 -29 -21 -29 -29 0 -9 38 -134 85
-279 47 -145 85 -269 85 -275 0 -13 -240 -16 -241 -3 0 4 -30 126 -67 272 -53
211 -71 266 -84 268 -16 3 -18 -17 -20 -270 l-3 -273 -116 -3 -117 -3 -3 44
c-2 24 -3 293 -1 597 l4 553 186 -6 c167 -4 194 -8 256 -30z m214 -1429 l3
-48 -1760 0 -1761 0 0 50 0 50 1758 -2 1757 -3 3 -47z m-2840 -365 l3 -113
-176 0 -175 0 0 -225 0 -225 125 0 125 0 0 -115 0 -115 -125 0 -125 0 0 -255
0 -255 175 0 175 0 0 -115 0 -115 -340 0 -340 0 0 818 c0 450 2 821 4 823 2 2
154 4 338 4 l333 0 3 -112z m358 109 c6 -4 25 -108 43 -232 17 -124 45 -315
62 -425 16 -110 32 -224 36 -252 6 -55 23 -74 23 -26 0 14 9 76 20 137 11 61
34 199 51 306 58 363 78 480 84 490 7 12 291 14 299 2 4 -7 -65 -363 -262
-1352 l-57 -285 -151 -3 -152 -3 -16 88 c-20 107 -154 828 -166 898 -38 210
-54 293 -84 459 -19 104 -33 193 -30 198 6 10 285 11 300 0z m1432 -109 l3
-113 -181 0 -180 0 0 -225 0 -225 125 0 125 0 0 -115 0 -115 -125 0 -125 0 0
-255 0 -255 178 -2 177 -3 0 -110 0 -110 -342 -3 -343 -2 0 820 0 820 248 3
c136 1 290 3 342 2 l95 0 3 -112z m672 97 c135 -22 249 -100 302 -207 30 -61
32 -75 36 -189 7 -206 -32 -313 -145 -394 -30 -21 -59 -40 -64 -42 -8 -3 68
-250 190 -616 38 -114 54 -175 46 -178 -6 -3 -83 -3 -170 -2 l-160 3 -95 378
-94 377 -28 0 -28 0 0 -380 0 -380 -165 0 -165 0 0 819 0 820 38 4 c60 8 431
-2 502 -13z m380 -1880 l0 -40 -1760 0 -1760 0 0 40 0 40 1760 0 1760 0 0 -40z"/>
<path d="M3378 7896 c-44 -33 -48 -68 -48 -404 0 -176 3 -333 6 -351 8 -38 44
-78 77 -86 34 -9 91 19 108 53 11 21 15 98 17 342 4 348 -2 406 -45 440 -29
23 -89 26 -115 6z"/>
<path d="M5418 7890 c-15 -11 -30 -38 -37 -64 -14 -57 -15 -636 -1 -687 25
-91 127 -115 177 -40 16 23 18 58 21 361 3 353 0 393 -40 430 -28 26 -87 26
-120 0z"/>
<path d="M6190 7740 l0 -160 29 0 c95 0 142 85 120 219 -12 75 -38 101 -101
101 l-48 0 0 -160z"/>
<path d="M6020 5900 l0 -220 50 0 c74 0 115 21 142 72 20 38 23 57 23 158 0
171 -27 210 -147 210 l-68 0 0 -220z"/>
<path d="M780 6180 l0 -1790 308 2 307 3 5 984 5 984 87 -219 c48 -120 117
-295 154 -389 36 -93 152 -386 256 -650 104 -264 208 -527 230 -585 23 -58 45
-111 51 -117 7 -10 70 -13 253 -13 l244 0 0 1790 0 1790 -300 0 -300 0 -2
-926 -3 -925 -54 128 c-77 186 -389 929 -567 1353 l-153 365 -261 3 -260 2 0
-1790z"/>
</g>
</svg>
